<svg xmlns="http://www.w3.org/2000/svg" viewBox="0 0 1505 812" font-family="Helvetica, Arial, sans-serif">
  <rect width="1505" height="812" fill="#202123"/>

  <text x="195" y="76" fill="#ffffff" font-size="24" text-anchor="end">Townhomes</text>

  <text x="195" y="150" fill="#ffffff" font-size="24" text-anchor="end">Single family</text>
  <text x="195" y="180" fill="#ffffff" font-size="24" text-anchor="end">rentals</text>

  <text x="195" y="305" fill="#ffffff" font-size="24" text-anchor="end">Small</text>
  <text x="195" y="335" fill="#ffffff" font-size="24" text-anchor="end">multifamily</text>
  <text x="195" y="362" fill="#9b9c9e" font-size="20" text-anchor="end">(5-20 units)</text>

  <text x="195" y="565" fill="#ffffff" font-size="24" text-anchor="end">Large</text>
  <text x="195" y="595" fill="#ffffff" font-size="24" text-anchor="end">multifamily</text>
  <text x="195" y="622" fill="#9b9c9e" font-size="20" text-anchor="end">(20+ units)</text>

  <rect x="215" y="40" width="213" height="57" fill="#864c3e"/>
  <text x="321.5" y="76" fill="#ffffff" font-size="26" font-family="'Courier New', Courier, monospace" text-anchor="middle">8.6%</text>

  <rect x="215" y="99" width="213" height="104" fill="#864c3e"/>
  <text x="321.5" y="159" fill="#ffffff" font-size="26" font-family="'Courier New', Courier, monospace" text-anchor="middle">15.6%</text>

  <rect x="215" y="205" width="213" height="209" fill="#864c3e"/>
  <text x="321.5" y="318" fill="#ffffff" font-size="26" font-family="'Courier New', Courier, monospace" text-anchor="middle">31.4%</text>

  <rect x="215" y="416" width="213" height="296" fill="#f2c429"/>
  <text x="321.5" y="573" fill="#111418" font-size="26" font-family="'Courier New', Courier, monospace" text-anchor="middle">44.5%</text>

  <rect x="486" y="40" width="213" height="79" fill="#864c3e"/>
  <text x="592.5" y="86" fill="#ffffff" font-size="26" font-family="'Courier New', Courier, monospace" text-anchor="middle">11.9%</text>

  <rect x="486" y="121" width="213" height="160" fill="#864c3e"/>
  <text x="592.5" y="208" fill="#ffffff" font-size="26" font-family="'Courier New', Courier, monospace" text-anchor="middle">24%</text>

  <rect x="486" y="283" width="213" height="136" fill="#864c3e"/>
  <text x="592.5" y="358" fill="#ffffff" font-size="26" font-family="'Courier New', Courier, monospace" text-anchor="middle">20.4%</text>

  <rect x="486" y="421" width="213" height="291" fill="#f2c429"/>
  <text x="592.5" y="575" fill="#111418" font-size="26" font-family="'Courier New', Courier, monospace" text-anchor="middle">43.7%</text>

  <rect x="758" y="40" width="213" height="67" fill="#864c3e"/>
  <text x="864.5" y="80" fill="#ffffff" font-size="26" font-family="'Courier New', Courier, monospace" text-anchor="middle">10%</text>

  <rect x="758" y="109" width="213" height="192" fill="#864c3e"/>
  <text x="864.5" y="212" fill="#ffffff" font-size="26" font-family="'Courier New', Courier, monospace" text-anchor="middle">28.8%</text>

  <rect x="758" y="303" width="213" height="152" fill="#864c3e"/>
  <text x="864.5" y="385" fill="#ffffff" font-size="26" font-family="'Courier New', Courier, monospace" text-anchor="middle">22.8%</text>

  <rect x="758" y="457" width="213" height="255" fill="#f2c429"/>
  <text x="864.5" y="593" fill="#111418" font-size="26" font-family="'Courier New', Courier, monospace" text-anchor="middle">38.4%</text>

  <line x1="205" y1="712" x2="981" y2="712" stroke="#ffffff" stroke-width="1.5"/>

  <text x="321.5" y="757" fill="#ffffff" font-size="28" text-anchor="middle">San Francisco</text>
  <text x="592.5" y="757" fill="#ffffff" font-size="28" text-anchor="middle">San Jose</text>
  <text x="864.5" y="757" fill="#ffffff" font-size="28" text-anchor="middle">Oakland</text>

  <path d="M 978 40 L 992 40 L 992 455 L 978 455"
        stroke="#e26a47" stroke-width="2.5" fill="none" stroke-linejoin="miter"/>

  <text x="1015" y="160" fill="#e26a47" font-size="22" font-weight="700" letter-spacing="1">POOR  VISIBILITY:</text>
  <text x="1015" y="200" fill="#ffffff" font-size="22">Most organizations rely on</text>
  <text x="1015" y="230" fill="#ffffff" font-size="22">ACS, Zillow, and fragmented</text>
  <text x="1015" y="260" fill="#ffffff" font-size="22">data sources, when they</text>
  <text x="1015" y="290" fill="#ffffff" font-size="22">can access them at all.</text>
  <text x="1015" y="320" fill="#ffffff" font-size="22"></text>

  <path d="M 978 457 L 992 457 L 992 712 L 978 712"
        stroke="#f2c429" stroke-width="2.5" fill="none" stroke-linejoin="miter"/>

  <text x="1015" y="490" fill="#f2c429" font-size="22" font-weight="700" letter-spacing="1">OKAY  VISIBILITY:</text>
  <text x="1015" y="528" fill="#ffffff" font-size="22">Rely on ACS and Zillow.</text>
  <text x="1015" y="558" fill="#ffffff" font-size="22">Those that can afford it</text>
  <text x="1015" y="588" fill="#ffffff" font-size="22">purchase data from</text>
  <text x="1015" y="618" fill="#ffffff" font-size="22">commercial brokers, and</text>
  <text x="1015" y="648" fill="#ffffff" font-size="22">even then, the data is</text>
  <text x="1015" y="678" fill="#ffffff" font-size="22">only market-rate.</text>
  <text x="1015" y="706" fill="#ffffff" font-size="22"></text>
</svg>
